Coordinates
version=1
nRows=40
nColumns=30
inDegrees=yes

Units are S.I. units (second, meters, Newtons, ...)
Angles are in degrees.

endheader
time	floatyaw	floatroll	floatpitch	floatx	floaty	floatz	pro_sup_l	deviation_l	flexion_l	cmc_flexion_l	cmc_abduction_l	mp_flexion_l	ip_flexion_l	2mcp_flexion_l	2mcp_abduction_l	2pm_flexion_l	2md_flexion_l	3mcp_flexion_l	3mcp_abduction_l	3pm_flexion_l	3md_flexion_l	4mcp_flexion_l	4mcp_abduction_l	4pm_flexion_l	4md_flexion_l	5mcp_flexion_l	5mcp_abduction_l	5pm_flexion_l	5md_flexion_l
-1.495000	-4.367428	-0.612882	99.545687	-0.103421	-0.193795	-0.017474	88.661388	0.168375	-0.047542	16.681342	6.507304	-22.159090	-35.202340	36.984362	8.255282	47.078191	32.822251	21.679148	4.625042	47.753589	31.912500	10.650976	-4.692682	62.441485	41.985602	5.414547	-8.051233	61.469723	41.652883
-1.485000	-4.367428	-0.612882	99.545687	-0.103419	-0.193783	-0.017470	88.661270	0.167319	-0.035515	16.667589	6.484192	-22.167419	-35.199505	36.989900	8.248348	47.079468	32.826526	21.647697	4.632502	47.757382	31.925192	10.618796	-4.684254	62.448429	41.997828	5.443522	-8.078916	61.451021	41.636697
-1.475000	-4.367428	-0.612882	99.545687	-0.103415	-0.193769	-0.017464	88.668110	0.170681	-0.027474	16.653041	6.471183	-22.176770	-35.200100	36.992755	8.242815	47.081438	32.830211	21.625476	4.635212	47.766539	31.937593	10.596445	-4.680293	62.458919	42.009087	5.470021	-8.097327	61.437914	41.622157
-1.465000	-4.367428	-0.612882	99.545687	-0.103410	-0.193756	-0.017457	88.681450	0.177373	-0.024601	16.639847	6.467854	-22.185131	-35.203963	36.996091	8.238059	47.085429	32.833949	21.616885	4.633237	47.777807	31.947797	10.588677	-4.680643	62.471613	42.018524	5.484267	-8.101746	61.437167	41.612916
-1.455000	-4.367428	-0.612882	99.545687	-0.103406	-0.193741	-0.017447	88.698747	0.185106	-0.026286	16.629187	6.467724	-22.190432	-35.209165	37.003705	8.233246	47.091885	32.837867	21.621984	4.628319	47.786668	31.953906	10.595571	-4.683897	62.483863	42.025335	5.480483	-8.092901	61.451969	41.610848
-1.445000	-4.367428	-0.612882	99.545687	-0.103402	-0.193728	-0.017436	88.715793	0.191186	-0.030646	16.620314	6.462752	-22.191695	-35.213090	37.018195	8.227635	47.100145	32.841594	21.637135	4.622839	47.790279	31.955173	10.612626	-4.688093	62.492992	42.029073	5.459882	-8.076576	61.480104	41.615062
-1.435000	-4.367428	-0.612882	99.545687	-0.103400	-0.193717	-0.017423	88.727761	0.193226	-0.035435	16.610860	6.448233	-22.189560	-35.213713	37.040026	8.220732	47.108509	32.844452	21.656819	4.618730	47.789375	31.952728	10.632510	-4.691432	62.497708	42.030001	5.430491	-8.060906	61.513972	41.621988
-1.425000	-4.367428	-0.612882	99.545687	-0.103400	-0.193711	-0.017409	88.730838	0.189851	-0.038831	16.598109	6.425314	-22.186067	-35.210469	37.067599	8.212222	47.114569	32.845678	21.675555	4.616835	47.787834	31.949275	10.647532	-4.692750	62.498793	42.029241	5.403537	-8.052774	61.542763	41.626636
-1.415000	-4.367428	-0.612882	99.545687	-0.103403	-0.193710	-0.017394	88.723951	0.181347	-0.039936	16.580498	6.400061	-22.183873	-35.204401	37.097794	8.201822	47.115795	32.844638	21.689221	4.616915	47.790157	31.947820	10.652031	-4.691705	62.498598	42.028498	5.388109	-8.054952	61.556296	41.624609
-1.405000	-4.367428	-0.612882	99.545687	-0.103409	-0.193712	-0.017380	88.709571	0.169785	-0.038996	16.558473	6.380121	-22.185268	-35.197641	37.126711	8.189329	47.110446	32.841089	21.695647	4.618155	47.798634	31.950206	10.644182	-4.688738	62.499703	42.029387	5.387104	-8.065230	61.549206	41.613984
-1.395000	-4.367428	-0.612882	99.545687	-0.103417	-0.193717	-0.017365	88.692824	0.158175	-0.037308	16.534270	6.371137	-22.191311	-35.192508	37.150776	8.175001	47.098743	32.835529	21.694741	4.619831	47.812276	31.956396	10.626754	-4.684868	62.503589	42.032684	5.396903	-8.077853	61.523511	41.596094
-1.385000	-4.367428	-0.612882	99.545687	-0.103426	-0.193721	-0.017352	88.679218	0.148970	-0.036788	16.510743	6.374641	-22.201422	-35.190627	37.168155	8.160019	47.083676	32.829387	21.688352	4.621707	47.828145	31.964904	10.606456	-4.681358	62.510143	42.037925	5.410663	-8.086382	61.488037	41.574797
-1.375000	-4.367428	-0.612882	99.545687	-0.103433	-0.193722	-0.017339	88.672328	0.142869	-0.039279	16.489960	6.387899	-22.213690	-35.192461	37.179689	8.146508	47.070525	32.824699	21.679901	4.623956	47.843841	31.973890	10.591794	-4.679354	62.518146	42.043601	5.422567	-8.086359	61.454723	41.554695
-1.365000	-4.367428	-0.612882	99.545687	-0.103438	-0.193722	-0.017325	88.672748	0.138827	-0.045825	16.472288	6.405301	-22.225867	-35.197425	37.188521	8.136769	47.064713	32.823192	21.673582	4.626696	47.859054	31.982078	10.589961	-4.679584	62.526209	42.047862	5.429990	-8.076393	61.433512	41.539253
-1.355000	-4.367428	-0.612882	99.545687	-0.103438	-0.193719	-0.017309	88.678700	0.135210	-0.056168	16.456397	6.420570	-22.236538	-35.204463	37.198392	8.131998	47.068956	32.825269	21.673004	4.629555	47.875053	31.988973	10.603872	-4.682149	62.533432	42.049372	5.432771	-8.057576	61.428252	41.529664
-1.345000	-4.367428	-0.612882	99.545687	-0.103434	-0.193715	-0.017292	88.687604	0.131193	-0.068729	16.440112	6.429056	-22.245762	-35.212633	37.211586	8.131248	47.081550	32.829646	21.679654	4.631696	47.892771	31.994494	10.630658	-4.686397	62.539401	42.047921	5.431294	-8.032219	61.435398	41.524708
-1.335000	-4.367428	-0.612882	99.545687	-0.103429	-0.193709	-0.017273	88.697432	0.127282	-0.081137	16.421623	6.429340	-22.254699	-35.221354	37.227732	8.131423	47.097146	32.834014	21.692070	4.632339	47.911207	31.998510	10.662561	-4.690980	62.543755	42.044460	5.425577	-8.003047	61.445986	41.521467
-1.325000	-4.367428	-0.612882	99.545687	-0.103426	-0.193701	-0.017254	88.707064	0.124562	-0.091192	16.400419	6.423473	-22.264421	-35.230158	37.244211	8.128471	47.109712	32.836367	21.706533	4.631402	47.927407	32.000681	10.690117	-4.694235	62.545923	42.040585	5.415932	-7.973135	61.450001	41.516606
-1.315000	-4.367428	-0.612882	99.545687	-0.103425	-0.193692	-0.017235	88.715672	0.123280	-0.097883	16.377447	6.415658	-22.274539	-35.238128	37.258082	8.119229	47.115885	32.836142	21.719097	4.629770	47.938003	32.000724	10.706254	-4.694819	62.545535	42.037846	5.403961	-7.946016	61.441195	41.507844
-1.305000	-4.367428	-0.612882	99.545687	-0.103427	-0.193683	-0.017217	88.721911	0.121903	-0.101889	16.354419	6.410019	-22.282592	-35.243452	37.268388	8.102985	47.116682	32.834465	21.727763	4.628961	47.941211	31.998899	10.709251	-4.692344	62.543355	42.037321	5.392561	-7.925217	61.420135	41.495054
-1.295000	-4.367428	-0.612882	99.545687	-0.103429	-0.193677	-0.017199	88.723774	0.117506	-0.105145	16.332680	6.408627	-22.284851	-35.243653	37.277147	8.081997	47.116581	32.833390	21.733406	4.630344	47.938030	31.996359	10.703077	-4.687649	62.541856	42.039552	5.384849	-7.913110	61.393932	41.480378
-1.285000	-4.367428	-0.612882	99.545687	-0.103429	-0.193676	-0.017180	88.719402	0.107288	-0.109549	16.312298	6.410869	-22.278422	-35.236666	37.288064	8.060649	47.120677	32.834644	21.738872	4.634373	47.932043	31.995065	10.695069	-4.682508	62.544529	42.044601	5.382993	-7.909750	61.372768	41.467205
-1.275000	-4.367428	-0.612882	99.545687	-0.103425	-0.193679	-0.017161	88.708261	0.090126	-0.115579	16.291983	6.414439	-22.263393	-35.222213	37.303821	8.043592	47.131713	32.838690	21.746830	4.640327	47.928014	31.997223	10.692300	-4.678871	62.554033	42.052010	5.387905	-7.912764	61.364989	41.458458
-1.265000	-4.367428	-0.612882	99.545687	-0.103419	-0.193685	-0.017141	88.691727	0.067074	-0.121744	16.270007	6.417264	-22.243455	-35.202455	37.323953	8.033779	47.148686	32.844629	21.757705	4.646715	47.930049	32.004529	10.698449	-4.677997	62.570399	42.060751	5.399707	-7.918750	61.373223	41.455107
-1.255000	-4.367428	-0.612882	99.545687	-0.103412	-0.193690	-0.017121	88.672594	0.040602	-0.125369	16.245624	6.419134	-22.224339	-35.181293	37.344759	8.031404	47.167560	32.850882	21.769003	4.652097	47.940052	32.017526	10.712599	-4.679924	62.590644	42.069411	5.418120	-7.925374	61.393379	41.455700
-1.245000	-4.367428	-0.612882	99.545687	-0.103406	-0.193689	-0.017101	88.653948	0.013365	-0.124278	16.219912	6.421944	-22.211048	-35.162689	37.361243	8.034226	47.183305	32.856053	21.776505	4.655773	47.957012	32.035294	10.730335	-4.683589	62.610140	42.076639	5.442073	-7.932455	61.416811	41.457165
-1.235000	-4.367428	-0.612882	99.545687	-0.103402	-0.193682	-0.017080	88.638182	-0.012585	-0.118316	16.195273	6.428390	-22.205721	-35.149078	37.369904	8.038835	47.192056	32.859439	21.776721	4.657923	47.977394	32.055606	10.746363	-4.687503	62.624770	42.081588	5.468878	-7.941029	61.434340	41.456357
-1.225000	-4.367428	-0.612882	99.545687	-0.103401	-0.193671	-0.017057	88.626691	-0.035854	-0.109676	16.173855	6.440014	-22.207388	-35.140813	37.370803	8.042015	47.192512	32.861034	21.769097	4.659225	47.996576	32.075522	10.757176	-4.690561	62.632434	42.083995	5.494092	-7.951213	61.440057	41.451467
-1.215000	-4.367428	-0.612882	99.545687	-0.103401	-0.193659	-0.017033	88.620083	-0.055425	-0.101854	16.156081	6.455950	-22.213400	-35.136744	37.367673	8.041614	47.186311	32.861261	21.756594	4.660346	48.010762	32.092285	10.762435	-4.692531	62.633119	42.083872	5.512972	-7.960952	61.433239	41.442578
-1.205000	-4.367428	-0.612882	99.545687	-0.103399	-0.193650	-0.017009	88.618438	-0.070619	-0.097946	16.140412	6.473188	-22.221234	-35.135325	37.365934	8.036818	47.177477	32.860740	21.744317	4.661721	48.018488	32.104151	10.764642	-4.693966	62.628018	42.081169	5.523060	-7.966970	61.417878	41.431240
-1.195000	-4.367428	-0.612882	99.545687	-0.103395	-0.193645	-0.016985	88.621358	-0.081415	-0.099407	16.124530	6.488014	-22.229484	-35.135470	37.369858	8.028023	47.171147	32.860169	21.737156	4.663678	48.020987	32.110833	10.767547	-4.695670	62.618757	42.075790	5.526109	-7.967185	61.400525	41.419532
-1.185000	-4.367428	-0.612882	99.545687	-0.103388	-0.193643	-0.016963	88.627982	-0.088705	-0.105916	16.107057	6.497493	-22.237769	-35.136794	37.380742	8.016486	47.171872	32.860209	21.737921	4.666569	48.021310	32.113358	10.774267	-4.698049	62.607264	42.067989	5.527580	-7.962465	61.387703	41.409221
-1.175000	-4.367428	-0.612882	99.545687	-0.103380	-0.193645	-0.016943	88.637255	-0.094010	-0.116116	16.088558	6.500191	-22.246125	-35.139373	37.397033	8.003847	47.182028	32.861279	21.746814	4.670643	48.022809	32.113486	10.786012	-4.700759	62.595828	42.058669	5.533638	-7.956209	61.384028	41.401436
-1.165000	-4.367428	-0.612882	99.545687	-0.103369	-0.193648	-0.016922	88.648423	-0.098691	-0.128501	16.071162	6.496041	-22.254554	-35.143357	37.415753	7.991655	47.201088	32.863438	21.762033	4.675712	48.027811	32.113017	10.801864	-4.702836	62.586667	42.049177	5.547642	-7.952183	61.391544	41.396785
-1.155000	-4.367428	-0.612882	99.545687	-0.103357	-0.193653	-0.016901	88.661506	-0.103146	-0.141867	16.057188	6.485843	-22.262948	-35.148699	37.433807	7.981006	47.226147	32.866493	21.780813	4.680924	48.036974	32.113265	10.819485	-4.703239	62.581056	42.040718	5.568566	-7.952326	61.410079	41.395622
-1.145000	-4.367428	-0.612882	99.545687	-0.103343	-0.193657	-0.016880	88.677469	-0.106480	-0.155291	16.047836	6.470796	-22.271122	-35.155057	37.448525	7.972372	47.253377	32.870277	21.800433	4.684896	48.049333	32.114751	10.836249	-4.701453	62.578829	42.033904	5.592237	-7.955986	61.438040	41.398065
-1.135000	-4.367428	-0.612882	99.545687	-0.103328	-0.193661	-0.016860	88.697807	-0.106893	-0.167969	16.042737	6.452264	-22.278668	-35.161759	37.457945	7.965593	47.279611	32.874845	21.818943	4.686199	48.062892	32.117214	10.850136	-4.697782	62.578905	42.028887	5.614304	-7.960860	61.472911	41.403645
-1.125000	-4.367428	-0.612882	99.545687	-0.103312	-0.193663	-0.016841	88.723449	-0.102719	-0.179149	16.040298	6.431744	-22.284745	-35.167792	37.461427	7.960030	47.303311	32.880455	21.835368	4.684011	48.075647	32.120054	10.859938	-4.693140	62.580558	42.025949	5.632983	-7.964932	61.511077	41.410824
-1.115000	-4.367428	-0.612882	99.545687	-0.103294	-0.193662	-0.016824	88.753466	-0.093670	-0.188157	16.038310	6.410827	-22.288138	-35.171857	37.460179	7.954872	47.324579	32.887332	21.849364	4.678619	48.086728	32.123122	10.864879	-4.688473	62.584334	42.025954	5.649999	-7.968164	61.547495	41.416942
-1.105000	-4.367428	-0.612882	99.545687	-0.103276	-0.193658	-0.016811	88.784655	-0.081471	-0.194460	16.034537	6.390933	-22.287749	-35.172594	37.456834	7.949619	47.344329	32.895383	21.860709	4.671398	48.096999	32.127284	10.864373	-4.684311	62.591791	42.030136	5.669244	-7.972640	61.576334	41.419096
